<svg width="41" height="42" viewBox="0 0 41 42" fill="none" xmlns="http://www.w3.org/2000/svg">
<path d="M20.5 22.6465C23.3305 22.6465 25.625 20.3519 25.625 17.5215C25.625 14.691 23.3305 12.3965 20.5 12.3965C17.6695 12.3965 15.375 14.691 15.375 17.5215C15.375 20.3519 17.6695 22.6465 20.5 22.6465Z" stroke="black" stroke-width="2" stroke-linecap="round" stroke-linejoin="round"/>
<path d="M20.5026 3.85449C16.878 3.85449 13.4018 5.29437 10.8388 7.85737C8.27581 10.4204 6.83594 13.8965 6.83594 17.5212C6.83594 20.7533 7.52269 22.8682 9.39844 25.2087L20.5026 38.0212L31.6068 25.2087C33.4825 22.8682 34.1693 20.7533 34.1693 17.5212C34.1693 13.8965 32.7294 10.4204 30.1664 7.85737C27.6034 5.29437 24.1272 3.85449 20.5026 3.85449V3.85449Z" stroke="black" stroke-width="2" stroke-linecap="round" stroke-linejoin="round"/>
</svg>
