<svg width="38" height="38" viewBox="0 0 38 38" fill="none" xmlns="http://www.w3.org/2000/svg">
<path d="M30.8785 34.875H30.6766C7.34225 33.5331 4.02912 13.8444 3.566 7.83563C3.52868 7.36844 3.58392 6.89848 3.72854 6.45268C3.87316 6.00687 4.10432 5.59399 4.40879 5.23767C4.71325 4.88136 5.08503 4.58863 5.50282 4.37625C5.92062 4.16386 6.37621 4.03601 6.8435 4H13.3866C13.8623 3.99954 14.3271 4.14192 14.7209 4.40869C15.1147 4.67547 15.4194 5.05435 15.5954 5.49625L17.4004 9.9375C17.5742 10.3692 17.6173 10.8425 17.5244 11.2985C17.4315 11.7545 17.2067 12.1732 16.8779 12.5025L14.3485 15.0556C14.7436 17.3009 15.8188 19.3706 17.4288 20.9848C19.0387 22.5989 21.1055 23.6796 23.3497 24.0806L25.9266 21.5275C26.2609 21.2023 26.6835 20.9827 27.1418 20.8962C27.6 20.8096 28.0736 20.8598 28.5035 21.0406L32.9804 22.8338C33.4156 23.0153 33.787 23.3223 34.0471 23.7157C34.3072 24.109 34.4443 24.5709 34.441 25.0425V31.3125C34.441 32.2573 34.0657 33.1635 33.3976 33.8316C32.7295 34.4997 31.8233 34.875 30.8785 34.875ZM7.1285 6.375C6.81355 6.375 6.51151 6.50011 6.28881 6.72281C6.06611 6.94551 5.941 7.24756 5.941 7.5625V7.6575C6.48725 14.6875 9.99037 31.3125 30.8072 32.5C30.9633 32.5096 31.1196 32.4884 31.2674 32.4375C31.4152 32.3865 31.5515 32.3069 31.6684 32.2032C31.7853 32.0995 31.8807 31.9738 31.9489 31.8331C32.0171 31.6925 32.0569 31.5398 32.066 31.3837V25.0425L27.5891 23.2494L24.181 26.6337L23.611 26.5625C13.2797 25.2681 11.8785 14.9369 11.8785 14.83L11.8072 14.26L15.1797 10.8519L13.3985 6.375H7.1285Z" fill="black"/>
</svg>
