<svg width="38" height="38" viewBox="0 0 38 38" fill="none" xmlns="http://www.w3.org/2000/svg">
<path d="M8.3099 6.33301H29.6849C30.9993 6.33292 32.2639 6.8358 33.2193 7.73849C34.1746 8.64117 34.7484 9.87523 34.8228 11.1875L34.8307 11.4788V26.5205C34.8308 27.8349 34.3279 29.0995 33.4252 30.0549C32.5226 31.0103 31.2885 31.584 29.9762 31.6584L29.6849 31.6663H8.3099C6.99551 31.6664 5.73092 31.1635 4.77553 30.2609C3.82014 29.3582 3.24639 28.1241 3.17198 26.8118L3.16406 26.5205V11.4788C3.16398 10.1645 3.66686 8.89986 4.56954 7.94448C5.47223 6.98909 6.70629 6.41534 8.01856 6.34092L8.3099 6.33301H29.6849H8.3099ZM32.4557 14.8403L19.5516 21.6328C19.4059 21.7097 19.2457 21.7555 19.0814 21.7673C18.917 21.779 18.752 21.7564 18.5968 21.7008L18.4448 21.6343L5.53906 14.8418V26.5205C5.53909 27.2159 5.80058 27.8858 6.27164 28.3974C6.74269 28.9089 7.38887 29.2246 8.0819 29.2818L8.3099 29.2913H29.6849C30.3805 29.2913 31.0507 29.0296 31.5623 28.5582C32.0738 28.0868 32.3894 27.4402 32.4462 26.7469L32.4557 26.5205V14.8403ZM29.6849 8.70801H8.3099C7.61451 8.70803 6.94456 8.96953 6.43303 9.44058C5.92149 9.91164 5.60578 10.5578 5.54856 11.2508L5.53906 11.4788V12.1581L18.9974 19.2403L32.4557 12.1565V11.4788C32.4557 10.7832 32.194 10.113 31.7226 9.60147C31.2512 9.0899 30.6046 8.77435 29.9113 8.71751L29.6849 8.70801Z" fill="black"/>
</svg>
